<mxfile host="app.diagrams.net" modified="2023-07-25T12:41:09.302Z" agent="Mozilla/5.0 (Windows NT 10.0; Win64; x64) AppleWebKit/537.36 (KHTML, like Gecko) Chrome/114.0.0.0 Safari/537.36 Edg/114.0.1823.37" version="21.6.5" etag="Go1_2m9Yqmah3jyre6sJ" type="github">
  <diagram name="PÃ¡gina-1" id="8iWMHlDWs_D8Bcn3cPTU">
    <mxGraphModel>
      <root>
        <mxCell id="0" />
        <mxCell id="1" parent="0" />
      </root>
    </mxGraphModel>
  </diagram>
</mxfile>
